<?xml version="1.0" encoding="UTF-8"?>
<svg xmlns="http://www.w3.org/2000/svg" version="1.1" width="600" height="600" viewBox="0 0 600 600"><rect x="0" y="0" width="600" height="600" fill="#ffffff"/><g transform="scale(15.385)"><g transform="translate(5,5)"><path fill-rule="evenodd" d="M9 0L9 1L10 1L10 2L8 2L8 3L9 3L9 4L10 4L10 5L9 5L9 6L8 6L8 8L4 8L4 9L5 9L5 10L4 10L4 11L8 11L8 12L6 12L6 13L8 13L8 12L9 12L9 11L10 11L10 10L12 10L12 8L13 8L13 10L14 10L14 11L13 11L13 12L12 12L12 11L11 11L11 12L12 12L12 13L11 13L11 15L10 15L10 13L9 13L9 14L8 14L8 15L7 15L7 14L5 14L5 12L2 12L2 13L1 13L1 12L0 12L0 13L1 13L1 14L2 14L2 15L3 15L3 18L2 18L2 16L1 16L1 15L0 15L0 17L1 17L1 18L0 18L0 19L1 19L1 20L0 20L0 21L1 21L1 20L2 20L2 21L3 21L3 20L5 20L5 18L6 18L6 19L9 19L9 20L8 20L8 25L9 25L9 26L8 26L8 29L10 29L10 28L12 28L12 29L13 29L13 28L12 28L12 27L10 27L10 25L9 25L9 24L10 24L10 23L9 23L9 21L11 21L11 23L12 23L12 24L11 24L11 26L12 26L12 24L14 24L14 25L15 25L15 21L14 21L14 19L13 19L13 20L12 20L12 19L11 19L11 20L10 20L10 18L9 18L9 17L10 17L10 16L11 16L11 18L12 18L12 16L13 16L13 18L15 18L15 17L14 17L14 16L16 16L16 19L15 19L15 20L17 20L17 21L16 21L16 22L17 22L17 21L18 21L18 20L19 20L19 23L16 23L16 24L17 24L17 25L16 25L16 26L17 26L17 28L16 28L16 27L15 27L15 28L16 28L16 29L17 29L17 28L19 28L19 29L22 29L22 26L19 26L19 27L18 27L18 26L17 26L17 25L19 25L19 23L20 23L20 25L24 25L24 26L23 26L23 27L26 27L26 26L28 26L28 27L27 27L27 29L29 29L29 28L28 28L28 27L29 27L29 25L26 25L26 26L25 26L25 24L26 24L26 22L27 22L27 24L29 24L29 21L26 21L26 22L25 22L25 20L26 20L26 19L25 19L25 20L22 20L22 18L23 18L23 19L24 19L24 18L23 18L23 17L24 17L24 16L21 16L21 14L22 14L22 15L23 15L23 12L24 12L24 11L25 11L25 10L26 10L26 11L27 11L27 13L28 13L28 14L27 14L27 17L26 17L26 12L25 12L25 14L24 14L24 15L25 15L25 18L27 18L27 20L28 20L28 19L29 19L29 16L28 16L28 15L29 15L29 12L28 12L28 11L29 11L29 9L28 9L28 10L26 10L26 9L27 9L27 8L26 8L26 9L25 9L25 10L23 10L23 8L21 8L21 6L20 6L20 3L21 3L21 1L20 1L20 0L19 0L19 1L16 1L16 0L12 0L12 1L10 1L10 0ZM13 1L13 3L12 3L12 2L11 2L11 3L12 3L12 4L11 4L11 5L10 5L10 6L9 6L9 7L10 7L10 6L11 6L11 8L12 8L12 6L13 6L13 7L14 7L14 10L15 10L15 12L14 12L14 14L15 14L15 15L16 15L16 16L17 16L17 14L16 14L16 13L17 13L17 11L16 11L16 10L15 10L15 9L16 9L16 8L17 8L17 7L18 7L18 6L17 6L17 7L16 7L16 6L15 6L15 7L14 7L14 6L13 6L13 5L15 5L15 4L16 4L16 5L18 5L18 2L16 2L16 3L15 3L15 4L14 4L14 1ZM19 2L19 3L20 3L20 2ZM19 6L19 8L20 8L20 6ZM0 8L0 9L2 9L2 10L0 10L0 11L2 11L2 10L3 10L3 8ZM9 8L9 9L6 9L6 10L10 10L10 8ZM17 9L17 10L18 10L18 14L19 14L19 15L20 15L20 12L21 12L21 11L22 11L22 9L21 9L21 10L20 10L20 9ZM19 11L19 12L20 12L20 11ZM3 13L3 14L4 14L4 16L5 16L5 17L4 17L4 18L5 18L5 17L6 17L6 18L8 18L8 17L6 17L6 16L7 16L7 15L5 15L5 14L4 14L4 13ZM11 15L11 16L12 16L12 15ZM18 16L18 17L17 17L17 18L18 18L18 19L20 19L20 17L21 17L21 16ZM27 17L27 18L28 18L28 17ZM1 18L1 19L2 19L2 18ZM6 20L6 21L7 21L7 20ZM11 20L11 21L12 21L12 20ZM21 21L21 24L24 24L24 21ZM22 22L22 23L23 23L23 22ZM13 26L13 27L14 27L14 26ZM9 27L9 28L10 28L10 27ZM19 27L19 28L20 28L20 27ZM24 28L24 29L25 29L25 28ZM0 0L0 7L7 7L7 0ZM1 1L1 6L6 6L6 1ZM2 2L2 5L5 5L5 2ZM22 0L22 7L29 7L29 0ZM23 1L23 6L28 6L28 1ZM24 2L24 5L27 5L27 2ZM0 22L0 29L7 29L7 22ZM1 23L1 28L6 28L6 23ZM2 24L2 27L5 27L5 24Z" fill="#ff9900"/></g></g></svg>
