<?xml version="1.0" encoding="UTF-8"?>
<svg xmlns="http://www.w3.org/2000/svg" version="1.1" width="400" height="400" viewBox="0 0 400 400"><rect x="0" y="0" width="400" height="400" fill="#ffffff"/><g transform="scale(11.429)"><g transform="translate(5,5)"><path fill-rule="evenodd" d="M8 0L8 2L9 2L9 4L8 4L8 9L7 9L7 8L5 8L5 9L3 9L3 8L0 8L0 9L3 9L3 10L2 10L2 11L5 11L5 12L4 12L4 14L3 14L3 15L2 15L2 14L0 14L0 15L2 15L2 16L0 16L0 17L2 17L2 16L4 16L4 15L5 15L5 17L7 17L7 16L9 16L9 17L8 17L8 18L9 18L9 19L8 19L8 20L9 20L9 21L10 21L10 20L12 20L12 21L11 21L11 24L9 24L9 22L8 22L8 25L12 25L12 23L16 23L16 25L19 25L19 24L21 24L21 25L22 25L22 24L21 24L21 22L23 22L23 23L25 23L25 20L23 20L23 21L22 21L22 20L21 20L21 19L22 19L22 18L23 18L23 17L24 17L24 19L25 19L25 17L24 17L24 16L23 16L23 17L22 17L22 18L21 18L21 15L23 15L23 14L24 14L24 15L25 15L25 12L24 12L24 13L23 13L23 14L20 14L20 12L22 12L22 11L23 11L23 10L24 10L24 11L25 11L25 8L23 8L23 10L22 10L22 9L21 9L21 8L17 8L17 6L16 6L16 8L14 8L14 10L13 10L13 8L12 8L12 7L13 7L13 5L14 5L14 3L15 3L15 4L16 4L16 5L17 5L17 2L16 2L16 3L15 3L15 2L13 2L13 3L12 3L12 2L11 2L11 0L10 0L10 1L9 1L9 0ZM12 0L12 1L13 1L13 0ZM16 0L16 1L17 1L17 0ZM10 2L10 5L9 5L9 9L8 9L8 12L10 12L10 11L9 11L9 9L10 9L10 6L11 6L11 7L12 7L12 5L13 5L13 4L12 4L12 3L11 3L11 2ZM14 6L14 7L15 7L15 6ZM16 8L16 9L17 9L17 10L16 10L16 13L17 13L17 14L16 14L16 15L17 15L17 14L18 14L18 12L17 12L17 10L18 10L18 9L17 9L17 8ZM5 9L5 10L7 10L7 9ZM20 9L20 10L19 10L19 11L21 11L21 9ZM12 10L12 11L11 11L11 12L12 12L12 13L13 13L13 14L14 14L14 12L15 12L15 11L13 11L13 10ZM6 11L6 12L5 12L5 13L6 13L6 14L5 14L5 15L6 15L6 16L7 16L7 15L8 15L8 14L9 14L9 13L6 13L6 12L7 12L7 11ZM12 11L12 12L13 12L13 11ZM2 12L2 13L3 13L3 12ZM10 13L10 14L11 14L11 13ZM6 14L6 15L7 15L7 14ZM10 15L10 16L12 16L12 15ZM13 15L13 17L14 17L14 18L12 18L12 19L13 19L13 22L14 22L14 21L15 21L15 22L16 22L16 23L17 23L17 21L15 21L15 20L14 20L14 19L16 19L16 16L15 16L15 15ZM18 15L18 16L19 16L19 15ZM14 16L14 17L15 17L15 16ZM9 17L9 18L10 18L10 19L11 19L11 18L10 18L10 17ZM17 17L17 20L20 20L20 17ZM18 18L18 19L19 19L19 18ZM18 21L18 23L20 23L20 21ZM23 21L23 22L24 22L24 21ZM24 24L24 25L25 25L25 24ZM0 0L0 7L7 7L7 0ZM1 1L1 6L6 6L6 1ZM2 2L2 5L5 5L5 2ZM18 0L18 7L25 7L25 0ZM19 1L19 6L24 6L24 1ZM20 2L20 5L23 5L23 2ZM0 18L0 25L7 25L7 18ZM1 19L1 24L6 24L6 19ZM2 20L2 23L5 23L5 20Z" fill="#000000"/></g></g></svg>
