<?xml version="1.0" encoding="utf-8"?>
<!-- Generator: Adobe Illustrator 28.0.0, SVG Export Plug-In . SVG Version: 6.00 Build 0)  -->
<svg version="1.1" id="Layer_1" xmlns="http://www.w3.org/2000/svg" xmlns:xlink="http://www.w3.org/1999/xlink" x="0px" y="0px"
	 viewBox="0 0 1920 5662" style="enable-background:new 0 0 1920 5662;" xml:space="preserve">
<style type="text/css">
	.st0{fill:none;}
	.st1{fill:none;stroke:#C99D79;stroke-width:2;stroke-miterlimit:10;}
	.st2{fill:#C99D79;}
	.st3{fill:#FFF8F3;}
	.st4{opacity:0.15;fill:url(#SVGID_1_);}
	.st5{opacity:0.15;fill:url(#SVGID_00000109746230006480748240000003286470415376243898_);}
	.st6{fill:#C69C6D;}
	.st7{fill:#FFFFFF;}
	.st8{fill:#160C01;}
	.st9{fill:none;stroke:#D6B25F;stroke-width:8.2152;stroke-linecap:round;stroke-linejoin:round;stroke-miterlimit:10;}
	.st10{fill:#D6B25F;}
	.st11{fill:#FFD954;}
	.st12{fill:url(#SVGID_00000101822612440403083590000004860670225721275531_);}
	.st13{fill:url(#SVGID_00000163759575966626479920000007562938627905611164_);}
	.st14{fill:url(#SVGID_00000036241727367194236770000008036389322071489979_);}
	.st15{fill:url(#SVGID_00000072998523263992422550000013929717496217780107_);}
	.st16{fill:url(#SVGID_00000094588453728536659870000014109306716048648353_);}
	.st17{fill:url(#SVGID_00000038374061857112719530000016050105106122370728_);}
	.st18{fill:url(#SVGID_00000002363157536056846410000001049456081847354762_);}
	.st19{fill:url(#SVGID_00000054969316176222172220000004949191641007441326_);}
	.st20{fill:url(#SVGID_00000011740036774249750630000014418915500225977263_);}
	.st21{fill:url(#SVGID_00000060020215666928669280000008970266551086049965_);}
	.st22{fill:url(#SVGID_00000179612013708744007470000012068578510694629251_);}
	.st23{fill:url(#SVGID_00000151543159654301082440000000889053845055550134_);}
	.st24{fill:url(#SVGID_00000123399650145594742060000018160106882933259950_);}
</style>
<pattern  x="-4721" y="-1318" width="124.4" height="82" patternUnits="userSpaceOnUse" id="New_Pattern_Swatch_6" viewBox="42.7 -165.7 124.4 82" style="overflow:visible;">
	<g>
		<rect x="42.7" y="-165.7" class="st0" width="124.4" height="82"/>
		<g>
			<path class="st1" d="M198.9-93.5h-0.8v-21.3h-21.3v-0.8c0-5.4-4.4-9.8-9.8-9.8h0c-5.4,0-9.8,4.4-9.8,9.8v0.8H136v21.3h-0.8
				c-5.4,0-9.8,4.4-9.8,9.8v0c0,5.4,4.4,9.8,9.8,9.8h0.8v21.3h21.3v0.8c0,5.4,4.4,9.8,9.8,9.8h0c5.4,0,9.8-4.4,9.8-9.8v-0.8h21.3
				v-21.3h0.8c5.4,0,9.8-4.4,9.8-9.8v0C208.7-89.1,204.3-93.5,198.9-93.5z"/>
			<polygon class="st1" points="184.2,-83.7 174.5,-79.4 175.6,-68.8 167.1,-75.1 158.5,-68.8 159.6,-79.4 149.9,-83.7 159.6,-87.9 
				158.5,-98.5 167.1,-92.2 175.6,-98.5 174.5,-87.9 			"/>
			<g>
				<path class="st2" d="M135.3-85.6c-1.1,0-1.9,0.9-1.9,1.9c0,1.1,0.9,1.9,1.9,1.9c1.1,0,4.7-1.9,4.7-1.9S136.4-85.6,135.3-85.6
					 M135.3-87.6c1.3,0,3.8,1.2,5.6,2.2l3.3,1.8l-3.3,1.8c-1.8,1-4.3,2.2-5.6,2.2c-2.2,0-3.9-1.8-3.9-3.9
					C131.4-85.8,133.1-87.6,135.3-87.6L135.3-87.6z"/>
			</g>
			<g>
				<path class="st2" d="M167.1-115.3c-1.1,0-1.9,0.9-1.9,1.9c0,1.1,1.9,4.7,1.9,4.7s1.9-3.6,1.9-4.7
					C169-114.5,168.1-115.3,167.1-115.3 M167.1-117.3c2.2,0,3.9,1.8,3.9,3.9c0,1.3-1.2,3.8-2.2,5.6l-1.8,3.3l-1.8-3.3
					c-1-1.8-2.2-4.3-2.2-5.6C163.1-115.6,164.9-117.3,167.1-117.3L167.1-117.3z"/>
			</g>
			<g>
				<path class="st1" d="M146.1-106.5c0,1.4-1.1,2.5-2.5,2.5c-1.4,0-2.5-1.1-2.5-2.5c0-1.4,1.1-2.5,2.5-2.5
					C145-109,146.1-107.9,146.1-106.5z"/>
			</g>
		</g>
		<g>
			<path class="st1" d="M136.7-52.5H136v-21.3h-21.3v-0.8c0-5.4-4.4-9.8-9.8-9.8h0c-5.4,0-9.8,4.4-9.8,9.8v0.8H73.8v21.3H73
				c-5.4,0-9.8,4.4-9.8,9.8v0c0,5.4,4.4,9.8,9.8,9.8h0.8v21.3h21.3v0.8c0,5.4,4.4,9.8,9.8,9.8h0c5.4,0,9.8-4.4,9.8-9.8v-0.8H136
				v-21.3h0.8c5.4,0,9.8-4.4,9.8-9.8v0C146.5-48.1,142.1-52.5,136.7-52.5z"/>
		</g>
		<g>
			<path class="st1" d="M74.5-93.5h-0.8v-21.3H52.5v-0.8c0-5.4-4.4-9.8-9.8-9.8h0c-5.4,0-9.8,4.4-9.8,9.8v0.8H11.6v21.3h-0.8
				c-5.4,0-9.8,4.4-9.8,9.8v0c0,5.4,4.4,9.8,9.8,9.8h0.8v21.3h21.3v0.8c0,5.4,4.4,9.8,9.8,9.8h0c5.4,0,9.8-4.4,9.8-9.8v-0.8h21.3
				v-21.3h0.8c5.4,0,9.8-4.4,9.8-9.8v0C84.3-89.1,79.9-93.5,74.5-93.5z"/>
			<polygon class="st1" points="59.8,-83.7 50.1,-79.4 51.2,-68.8 42.7,-75.1 34.1,-68.8 35.2,-79.4 25.5,-83.7 35.2,-87.9 
				34.1,-98.5 42.7,-92.2 51.2,-98.5 50.1,-87.9 			"/>
			<g>
				<path class="st2" d="M74.4-85.6c-1.1,0-4.7,1.9-4.7,1.9s3.6,1.9,4.7,1.9c1.1,0,1.9-0.9,1.9-1.9C76.3-84.7,75.5-85.6,74.4-85.6
					 M74.4-87.6c2.2,0,3.9,1.8,3.9,3.9c0,2.2-1.8,3.9-3.9,3.9c-1.3,0-3.8-1.2-5.6-2.2l-3.3-1.8l3.3-1.8
					C70.6-86.4,73.1-87.6,74.4-87.6L74.4-87.6z"/>
			</g>
			<g>
				<path class="st2" d="M42.7-115.3c-1.1,0-1.9,0.9-1.9,1.9c0,1.1,1.9,4.7,1.9,4.7s1.9-3.6,1.9-4.7
					C44.6-114.5,43.7-115.3,42.7-115.3 M42.7-117.3c2.2,0,3.9,1.8,3.9,3.9c0,1.3-1.2,3.8-2.2,5.6l-1.8,3.3l-1.8-3.3
					c-1-1.8-2.2-4.3-2.2-5.6C38.7-115.6,40.5-117.3,42.7-117.3L42.7-117.3z"/>
			</g>
			<g>
				<path class="st1" d="M68.1-106.5c0,1.4-1.1,2.5-2.5,2.5c-1.4,0-2.5-1.1-2.5-2.5c0-1.4,1.1-2.5,2.5-2.5
					C67-109,68.1-107.9,68.1-106.5z"/>
			</g>
		</g>
		<g>
			<path class="st1" d="M198.9-175.5h-0.8v-21.3h-21.3v-0.8c0-5.4-4.4-9.8-9.8-9.8h0c-5.4,0-9.8,4.4-9.8,9.8v0.8H136v21.3h-0.8
				c-5.4,0-9.8,4.4-9.8,9.8v0c0,5.4,4.4,9.8,9.8,9.8h0.8v21.3h21.3v0.8c0,5.4,4.4,9.8,9.8,9.8h0c5.4,0,9.8-4.4,9.8-9.8v-0.8h21.3
				v-21.3h0.8c5.4,0,9.8-4.4,9.8-9.8v0C208.7-171.1,204.3-175.5,198.9-175.5z"/>
			<polygon class="st1" points="184.2,-165.7 174.5,-161.4 175.6,-150.8 167.1,-157.1 158.5,-150.8 159.6,-161.4 149.9,-165.7 
				159.6,-169.9 158.5,-180.5 167.1,-174.2 175.6,-180.5 174.5,-169.9 			"/>
			<g>
				<path class="st2" d="M135.3-167.6c-1.1,0-1.9,0.9-1.9,1.9c0,1.1,0.9,1.9,1.9,1.9c1.1,0,4.7-1.9,4.7-1.9S136.4-167.6,135.3-167.6
					 M135.3-169.6c1.3,0,3.8,1.2,5.6,2.2l3.3,1.8l-3.3,1.8c-1.8,1-4.3,2.2-5.6,2.2c-2.2,0-3.9-1.8-3.9-3.9
					C131.4-167.8,133.1-169.6,135.3-169.6L135.3-169.6z"/>
			</g>
			<g>
				<path class="st2" d="M167.1-140.6c0,0-1.9,3.6-1.9,4.7c0,1.1,0.9,1.9,1.9,1.9c1.1,0,1.9-0.9,1.9-1.9
					C169-137,167.1-140.6,167.1-140.6 M167.1-144.8l1.8,3.3c1,1.8,2.2,4.3,2.2,5.6c0,2.2-1.8,3.9-3.9,3.9c-2.2,0-3.9-1.8-3.9-3.9
					c0-1.3,1.2-3.8,2.2-5.6L167.1-144.8L167.1-144.8z"/>
			</g>
			<g>
				<path class="st1" d="M146.1-143.7c0,1.4-1.1,2.5-2.5,2.5c-1.4,0-2.5-1.1-2.5-2.5c0-1.4,1.1-2.5,2.5-2.5
					C145-146.2,146.1-145.1,146.1-143.7z"/>
			</g>
		</g>
		<g>
			<path class="st1" d="M136.7-134.5H136v-21.3h-21.3v-0.8c0-5.4-4.4-9.8-9.8-9.8h0c-5.4,0-9.8,4.4-9.8,9.8v0.8H73.8v21.3H73
				c-5.4,0-9.8,4.4-9.8,9.8v0c0,5.4,4.4,9.8,9.8,9.8h0.8v21.3h21.3v0.8c0,5.4,4.4,9.8,9.8,9.8h0c5.4,0,9.8-4.4,9.8-9.8v-0.8H136
				v-21.3h0.8c5.4,0,9.8-4.4,9.8-9.8v0C146.5-130.1,142.1-134.5,136.7-134.5z"/>
			<polygon class="st1" points="122,-124.7 112.3,-120.4 113.4,-109.8 104.9,-116.1 96.3,-109.8 97.4,-120.4 87.7,-124.7 
				97.4,-128.9 96.3,-139.5 104.9,-133.2 113.4,-139.5 112.3,-128.9 			"/>
			<g>
				<path class="st2" d="M136.6-126.6c-1.1,0-4.7,1.9-4.7,1.9s3.6,1.9,4.7,1.9c1.1,0,1.9-0.9,1.9-1.9
					C138.5-125.7,137.7-126.6,136.6-126.6 M136.6-128.6c2.2,0,3.9,1.8,3.9,3.9s-1.8,3.9-3.9,3.9c-1.3,0-3.8-1.2-5.6-2.2l-3.3-1.8
					l3.3-1.8C132.8-127.4,135.3-128.6,136.6-128.6L136.6-128.6z"/>
				<path class="st2" d="M73.1-126.6c-1.1,0-1.9,0.9-1.9,1.9c0,1.1,0.9,1.9,1.9,1.9c1.1,0,4.7-1.9,4.7-1.9S74.2-126.6,73.1-126.6
					 M73.1-128.6c1.3,0,3.8,1.2,5.6,2.2l3.3,1.8l-3.3,1.8c-1.8,1-4.3,2.2-5.6,2.2c-2.2,0-3.9-1.8-3.9-3.9S70.9-128.6,73.1-128.6
					L73.1-128.6z"/>
			</g>
			<g>
				<path class="st2" d="M104.9-99.6c0,0-1.9,3.6-1.9,4.7c0,1.1,0.9,1.9,1.9,1.9c1.1,0,1.9-0.9,1.9-1.9
					C106.8-96,104.9-99.6,104.9-99.6 M104.9-103.8l1.8,3.3c1,1.8,2.2,4.3,2.2,5.6c0,2.2-1.8,3.9-3.9,3.9c-2.2,0-3.9-1.8-3.9-3.9
					c0-1.3,1.2-3.8,2.2-5.6L104.9-103.8L104.9-103.8z"/>
				<path class="st2" d="M104.9-156.3c-1.1,0-1.9,0.9-1.9,1.9c0,1.1,1.9,4.7,1.9,4.7s1.9-3.6,1.9-4.7
					C106.8-155.5,105.9-156.3,104.9-156.3 M104.9-158.3c2.2,0,3.9,1.8,3.9,3.9c0,1.3-1.2,3.8-2.2,5.6l-1.8,3.3l-1.8-3.3
					c-1-1.8-2.2-4.3-2.2-5.6C100.9-156.6,102.7-158.3,104.9-158.3L104.9-158.3z"/>
			</g>
			<g>
				<path class="st1" d="M130.3-147.5c0,1.4-1.1,2.5-2.5,2.5c-1.4,0-2.5-1.1-2.5-2.5c0-1.4,1.1-2.5,2.5-2.5
					C129.2-150,130.3-148.9,130.3-147.5z"/>
				<path class="st1" d="M83.9-147.5c0,1.4-1.1,2.5-2.5,2.5c-1.4,0-2.5-1.1-2.5-2.5c0-1.4,1.1-2.5,2.5-2.5
					C82.8-150,83.9-148.9,83.9-147.5z"/>
			</g>
			<g>
				<path class="st1" d="M130.3-102.7c0,1.4-1.1,2.5-2.5,2.5c-1.4,0-2.5-1.1-2.5-2.5c0-1.4,1.1-2.5,2.5-2.5
					C129.2-105.2,130.3-104.1,130.3-102.7z"/>
				<path class="st1" d="M83.9-102.7c0,1.4-1.1,2.5-2.5,2.5c-1.4,0-2.5-1.1-2.5-2.5c0-1.4,1.1-2.5,2.5-2.5
					C82.8-105.2,83.9-104.1,83.9-102.7z"/>
			</g>
		</g>
		<g>
			<path class="st1" d="M74.5-175.5h-0.8v-21.3H52.5v-0.8c0-5.4-4.4-9.8-9.8-9.8h0c-5.4,0-9.8,4.4-9.8,9.8v0.8H11.6v21.3h-0.8
				c-5.4,0-9.8,4.4-9.8,9.8v0c0,5.4,4.4,9.8,9.8,9.8h0.8v21.3h21.3v0.8c0,5.4,4.4,9.8,9.8,9.8h0c5.4,0,9.8-4.4,9.8-9.8v-0.8h21.3
				v-21.3h0.8c5.4,0,9.8-4.4,9.8-9.8v0C84.3-171.1,79.9-175.5,74.5-175.5z"/>
			<polygon class="st1" points="59.8,-165.7 50.1,-161.4 51.2,-150.8 42.7,-157.1 34.1,-150.8 35.2,-161.4 25.5,-165.7 35.2,-169.9 
				34.1,-180.5 42.7,-174.2 51.2,-180.5 50.1,-169.9 			"/>
			<g>
				<path class="st2" d="M74.4-167.6c-1.1,0-4.7,1.9-4.7,1.9s3.6,1.9,4.7,1.9c1.1,0,1.9-0.9,1.9-1.9
					C76.3-166.7,75.5-167.6,74.4-167.6 M74.4-169.6c2.2,0,3.9,1.8,3.9,3.9c0,2.2-1.8,3.9-3.9,3.9c-1.3,0-3.8-1.2-5.6-2.2l-3.3-1.8
					l3.3-1.8C70.6-168.4,73.1-169.6,74.4-169.6L74.4-169.6z"/>
			</g>
			<g>
				<path class="st2" d="M42.7-140.6c0,0-1.9,3.6-1.9,4.7c0,1.1,0.9,1.9,1.9,1.9c1.1,0,1.9-0.9,1.9-1.9
					C44.6-137,42.7-140.6,42.7-140.6 M42.7-144.8l1.8,3.3c1,1.8,2.2,4.3,2.2,5.6c0,2.2-1.8,3.9-3.9,3.9c-2.2,0-3.9-1.8-3.9-3.9
					c0-1.3,1.2-3.8,2.2-5.6L42.7-144.8L42.7-144.8z"/>
			</g>
			<g>
				<path class="st1" d="M68.1-143.7c0,1.4-1.1,2.5-2.5,2.5c-1.4,0-2.5-1.1-2.5-2.5c0-1.4,1.1-2.5,2.5-2.5
					C67-146.2,68.1-145.1,68.1-143.7z"/>
			</g>
		</g>
		<g>
			<path class="st1" d="M136.7-216.5H136v-21.3h-21.3v-0.8c0-5.4-4.4-9.8-9.8-9.8h0c-5.4,0-9.8,4.4-9.8,9.8v0.8H73.8v21.3H73
				c-5.4,0-9.8,4.4-9.8,9.8v0c0,5.4,4.4,9.8,9.8,9.8h0.8v21.3h21.3v0.8c0,5.4,4.4,9.8,9.8,9.8h0c5.4,0,9.8-4.4,9.8-9.8v-0.8H136
				v-21.3h0.8c5.4,0,9.8-4.4,9.8-9.8v0C146.5-212.1,142.1-216.5,136.7-216.5z"/>
		</g>
	</g>
</pattern>
<pattern  id="SVGID_1_" xlink:href="#New_Pattern_Swatch_6" patternTransform="matrix(2.2833 0 0 2.2316 3691.5586 1424.3798)">
</pattern>
<rect class="st4" width="1920" height="5662"/>
</svg>
